<svg width="155" height="37" viewBox="0 0 155 37" fill="none" xmlns="http://www.w3.org/2000/svg">
<rect x="1.5" y="2" width="152" height="33" rx="4" stroke="black" stroke-width="2"/>
<path d="M29.24 12.76C29.4267 12.68 29.8133 12.6533 30.4 12.68C30.9867 12.6933 31.4067 12.7467 31.66 12.84L32.16 13C32.5733 13.28 32.8067 13.42 32.86 13.42C33.4067 13.8467 33.72 14.4067 33.8 15.1C33.88 15.3933 33.8933 15.66 33.84 15.9C33.84 15.98 33.8133 16.1533 33.76 16.42L33.56 16.88L33.32 17.22C33.24 17.2333 33.1933 17.24 33.18 17.24C32.6867 17.32 32.3067 17.3333 32.04 17.28C31.7733 17.2133 31.54 17.0667 31.34 16.84C31.3 16.76 31.28 16.6867 31.28 16.62C31.2933 16.5533 31.3133 16.4933 31.34 16.44L31.44 16.12C31.6133 15.6933 31.6 15.3333 31.4 15.04C31.4 15 31.3333 14.9267 31.2 14.82C31.0667 14.7133 30.96 14.6333 30.88 14.58C30.8133 14.5267 30.6867 14.52 30.5 14.56C30.18 14.6933 29.9067 15.1 29.68 15.78C29.4133 16.1267 29.2267 16.58 29.12 17.14C28.96 18.14 28.88 18.7067 28.88 18.84L28.86 19.28V19.46C28.8333 19.4867 28.8467 20.0667 28.9 21.2C28.9133 21.2667 28.94 21.36 28.98 21.48C29.02 21.6267 29.08 21.8667 29.16 22.2L29.42 22.64C29.4867 22.68 29.5733 22.8 29.68 23C29.7467 23 29.8 23.0467 29.84 23.14C29.9333 23.2333 29.9733 23.2867 29.96 23.3C30.0267 23.3133 30.1267 23.3533 30.26 23.42C30.62 23.6067 30.9333 23.5667 31.2 23.3C31.2933 23.2067 31.4067 23.08 31.54 22.92C31.6867 22.7467 31.7933 22.6133 31.86 22.52C31.94 22.4133 32.06 22.3133 32.22 22.22C32.66 21.8867 33.04 21.9 33.36 22.26C33.4267 22.3667 33.4333 22.6267 33.38 23.04C33.34 23.44 33.1533 23.86 32.82 24.3C32.7933 24.38 32.7067 24.5133 32.56 24.7C32.4133 24.8733 32.26 25.0133 32.1 25.12C32.0733 25.2133 31.5667 25.28 30.58 25.32C30.5267 25.32 30.42 25.3067 30.26 25.28C30.1133 25.32 29.9133 25.3 29.66 25.22C29.42 25.14 29.2867 25.1 29.26 25.1L29 25.04C28.8933 25.04 28.7867 25.0067 28.68 24.94C28.5733 24.8733 28.3933 24.76 28.14 24.6C27.9 24.4267 27.7133 24.2867 27.58 24.18C27.18 23.86 26.8933 23.4933 26.72 23.08C26.6667 22.9867 26.6333 22.86 26.62 22.7C26.6067 22.5267 26.58 22.4 26.54 22.32C26.4333 22.2133 26.38 22.04 26.38 21.8C26.3933 21.56 26.38 21.2667 26.34 20.92C26.34 20.76 26.3467 20.6667 26.36 20.64C26.2933 20.5733 26.2667 20.46 26.28 20.3C26.2933 20.1267 26.3 19.8933 26.3 19.6C26.34 19.52 26.3533 19.2867 26.34 18.9C26.34 18.5 26.3533 18.2 26.38 18C26.3267 17.88 26.32 17.7067 26.36 17.48L26.38 16.88C26.3933 16.64 26.4533 16.3867 26.56 16.12C26.5733 16 26.6 15.86 26.64 15.7C26.68 15.5267 26.8533 15.1867 27.16 14.68C27.16 14.5733 27.26 14.44 27.46 14.28C27.46 14.2267 27.5133 14.1467 27.62 14.04C27.7267 13.9333 27.8467 13.8 27.98 13.64C28.1667 13.4133 28.3733 13.2467 28.6 13.14C28.8267 13.0333 29.04 12.9067 29.24 12.76ZM38.9272 19.1C38.8339 18.5667 38.5739 18.32 38.1472 18.36C37.9072 18.3733 37.7005 18.5333 37.5272 18.84C37.2872 19.3067 37.1805 19.9133 37.2072 20.66C37.2472 21.3933 37.3005 21.9267 37.3672 22.26C37.4472 22.58 37.5805 22.86 37.7672 23.1C37.8739 23.2867 38.0339 23.3733 38.2472 23.36C38.6205 23.36 38.8939 23.0467 39.0672 22.42L39.2272 21.94C39.2939 21.8733 39.3072 21.8067 39.2672 21.74C39.4005 21.4067 39.4739 21.0133 39.4872 20.56C39.3539 20.4667 39.2739 20.38 39.2472 20.3C39.1672 20.0733 39.1272 19.92 39.1272 19.84C39.0339 19.7733 38.9805 19.6467 38.9672 19.46C38.9539 19.2733 38.9405 19.1533 38.9272 19.1ZM35.2672 20.98L35.3472 19.96C35.4405 19.04 35.7205 18.2533 36.1872 17.6C36.6405 17.0533 37.2805 16.7733 38.1072 16.76H38.2272C39.0005 16.76 39.5605 16.9267 39.9072 17.26C40.2805 17.5533 40.5539 17.8733 40.7272 18.22C40.9139 18.5667 41.0339 18.82 41.0872 18.98C41.1405 19.14 41.1739 19.3733 41.1872 19.68C41.2139 20.2533 41.1005 20.58 40.8472 20.66C41.0339 21.9267 40.9205 22.9333 40.5072 23.68C40.3739 23.9867 40.1805 24.32 39.9272 24.68C39.7405 24.92 39.4072 25.0533 38.9272 25.08C38.4472 25.08 38.0272 25.0533 37.6672 25C37.3205 24.9467 36.9339 24.78 36.5072 24.5C36.0805 24.2067 35.7805 23.7333 35.6072 23.08C35.4205 22.4533 35.3072 21.7533 35.2672 20.98ZM43.5834 14.3L43.7234 13.12L43.7434 12.5C43.7434 12.3267 43.7768 12.1933 43.8434 12.1L44.0434 11.82C44.4034 11.54 44.6368 11.38 44.7434 11.34C44.8501 11.3 45.0034 11.3067 45.2034 11.36C45.4168 11.4 45.5434 11.44 45.5834 11.48L45.8034 11.66C45.9234 11.7267 45.9834 11.8333 45.9834 11.98C46.0501 12.06 46.0701 12.12 46.0434 12.16C45.9634 12.2533 45.8301 13.04 45.6434 14.52L45.4834 17.24L45.3834 17.78C45.3834 17.9533 45.3901 18.0533 45.4034 18.08V18.44C45.3768 18.7067 45.3501 18.8733 45.3234 18.94C45.3234 19.0067 45.3101 19.08 45.2834 19.16C45.3101 19.1867 45.3234 19.2933 45.3234 19.48C45.3234 19.6533 45.3034 19.76 45.2634 19.8C45.2368 20.0133 45.2234 20.22 45.2234 20.42C45.2234 20.6067 45.2368 20.8067 45.2634 21.02C45.3034 21.22 45.3168 21.42 45.3034 21.62L45.3834 22.38V22.68C45.4101 22.92 45.4234 23.1133 45.4234 23.26L45.5234 24.3L45.6034 24.84C45.6434 25.0667 45.6234 25.2867 45.5434 25.5C45.4768 25.7133 45.3701 25.8467 45.2234 25.9C44.8101 26.0733 44.3568 25.96 43.8634 25.56H43.7034C43.6101 25.4533 43.5368 25.3067 43.4834 25.12C43.3768 25.0667 43.3301 24.9733 43.3434 24.84C43.3568 24.7067 43.3301 24.5867 43.2634 24.48C43.1968 24.3733 43.1634 24.28 43.1634 24.2C43.1634 24.0267 43.1501 23.8733 43.1234 23.74L43.1434 23.58C43.1034 23.54 43.0834 23.48 43.0834 23.4L43.0434 23.04V22.88C43.0434 22.7733 43.0368 22.7 43.0234 22.66C43.0234 22.62 43.0434 22.5533 43.0834 22.46C43.0434 22.4067 43.0368 22.2133 43.0634 21.88C43.1434 20.8533 43.1834 20.1467 43.1834 19.76L43.2034 19.28V18.7C43.2168 18.38 43.2234 17.9733 43.2234 17.48C43.2368 16.9867 43.2634 16.72 43.3034 16.68L43.2834 16.5C43.2834 16.18 43.3301 15.7467 43.4234 15.2C43.5301 14.64 43.5834 14.34 43.5834 14.3ZM48.2081 14.56C48.2481 14.44 48.2615 14.3267 48.2481 14.22C48.2348 14.1133 48.2415 13.8467 48.2681 13.42C48.3348 13.3 48.3415 13.0667 48.2881 12.72C48.2881 12.52 48.3681 12.3133 48.5281 12.1C48.6881 11.8733 48.8615 11.7067 49.0481 11.6V11.62C49.1015 11.5667 49.2215 11.5267 49.4081 11.5C49.8615 11.4333 50.1881 11.5733 50.3881 11.92C50.3348 12.0133 50.3081 12.3133 50.3081 12.82V14.86C50.3215 15.1933 50.3281 15.6467 50.3281 16.22V16.98L50.4081 18.28C50.4081 18.6267 50.4281 18.9733 50.4681 19.32C50.4681 19.96 50.4815 20.3467 50.5081 20.48C50.5348 20.6133 50.5481 20.7067 50.5481 20.76V21.08C50.5481 21.3733 50.5615 21.5867 50.5881 21.72C50.5881 21.8533 50.6215 21.9933 50.6881 22.14C50.6215 22.34 50.6215 22.5667 50.6881 22.82C50.7548 22.98 50.7748 23.1867 50.7481 23.44C50.8281 23.6 50.8548 23.8133 50.8281 24.08L50.8881 24.2L50.9281 24.38C50.9815 24.5533 50.9548 24.76 50.8481 25C50.7548 25.2267 50.5548 25.38 50.2481 25.46C49.9548 25.5533 49.6215 25.4133 49.2481 25.04C49.2348 25 49.1615 24.94 49.0281 24.86C48.8681 24.7667 48.7348 24.4533 48.6281 23.92C48.5615 23.7867 48.5281 23.6467 48.5281 23.5C48.3815 23.38 48.3081 23.2 48.3081 22.96V22.52C48.2948 22.32 48.2681 22.1867 48.2281 22.12C48.1881 22.0667 48.1548 21.9267 48.1281 21.7L48.1681 20.36C48.1681 19.92 48.1548 19.58 48.1281 19.34V17.98C48.0881 17.54 48.0681 17.2067 48.0681 16.98C48.0681 16.74 48.1148 16.2667 48.2081 15.56C48.2081 15.5067 48.1881 15.4333 48.1481 15.34C48.1881 15.14 48.2081 14.88 48.2081 14.56ZM56.7909 19.78C56.8043 19.74 56.8309 19.5067 56.8709 19.08C56.8443 19.04 56.8109 18.8933 56.7709 18.64C56.6643 18.4267 56.5243 18.2667 56.3509 18.16C56.1376 18.0667 56.0109 18.02 55.9709 18.02C55.8509 18.06 55.7643 18.1067 55.7109 18.16C55.6709 18.2 55.5576 18.3867 55.3709 18.72C55.1976 19.0533 55.0509 19.6067 54.9309 20.38C54.8243 21.1533 54.7709 21.7133 54.7709 22.06C54.7709 22.4067 54.7843 22.8333 54.8109 23.34C54.8376 23.8333 54.9443 24.0667 55.1309 24.04C55.3043 24.0133 55.5443 23.5333 55.8509 22.6C55.8643 22.5333 55.9109 22.4133 55.9909 22.24L56.7909 19.78ZM59.1309 18.96C59.1309 19.6667 59.2043 20.3133 59.3509 20.9C59.4176 21.4867 59.5376 22.1133 59.7109 22.78C59.7509 23.0467 59.7643 23.18 59.7509 23.18C60.0843 23.9133 60.2709 24.3533 60.3109 24.5C60.3509 24.6333 60.3443 24.7467 60.2909 24.84V24.82C60.2509 24.94 60.1243 25.0467 59.9109 25.14C59.7109 25.2467 59.5309 25.3133 59.3709 25.34C58.8643 25.5 58.5643 25.3067 58.4709 24.76C58.4176 24.72 58.3376 24.64 58.2309 24.52C58.1376 24.3867 58.0843 24.28 58.0709 24.2C58.0576 24.1067 58.0109 24.02 57.9309 23.94C57.9043 23.8733 57.8443 23.7867 57.7509 23.68C57.6576 23.5733 57.6043 23.4667 57.5909 23.36L57.5309 22.82L57.4909 22.8C57.2776 23.24 57.1376 23.5467 57.0709 23.72C56.9109 24.1733 56.6309 24.6933 56.2309 25.28C55.7776 25.7867 55.2243 25.9333 54.5709 25.72C54.3309 25.7067 54.1376 25.6333 53.9909 25.5C53.8576 25.3667 53.7643 25.2933 53.7109 25.28C53.6309 25.2533 53.5176 25.1533 53.3709 24.98C53.1309 24.66 52.9843 24.1867 52.9309 23.56V23.04C52.9709 22.9733 52.9709 22.6533 52.9309 22.08V21.96C52.8509 21.56 52.8109 21.32 52.8109 21.24C52.8109 21.16 52.8243 21.0533 52.8509 20.92C52.8776 20.7867 52.8843 20.7067 52.8709 20.68C52.8576 20.64 52.8509 20.58 52.8509 20.5V20.2L52.9509 19.12C53.0976 18.6533 53.2576 18.2333 53.4309 17.86C53.4843 17.6333 53.5843 17.4533 53.7309 17.32C54.0643 16.96 54.2443 16.7533 54.2709 16.7C54.3643 16.5 54.7109 16.34 55.3109 16.22L55.6509 16.24C55.7843 16.24 55.9043 16.26 56.0109 16.3C56.1176 16.3267 56.1909 16.34 56.2309 16.34C56.4176 16.4333 56.5709 16.48 56.6909 16.48C56.8109 16.48 57.0109 16.5733 57.2909 16.76C57.3709 16.7733 57.5709 16.8867 57.8909 17.1C58.2376 17.3267 58.4376 17.4533 58.4909 17.48L59.0109 17.66C59.1576 17.78 59.2309 17.8467 59.2309 17.86C59.2309 17.8733 59.1976 18.24 59.1309 18.96ZM63.6353 21.22C63.5553 21.4067 63.5153 21.5467 63.5153 21.64C63.5153 21.7333 63.4886 21.8733 63.4353 22.06C63.3686 22.1933 63.382 22.4067 63.4753 22.7C63.4753 22.94 63.502 23.2 63.5553 23.48C63.6086 23.7867 63.6886 24.0133 63.7953 24.16L64.0553 24.18C64.0286 24.1533 64.062 24.12 64.1553 24.08C64.302 24.0267 64.3886 23.98 64.4153 23.94C64.4553 23.8867 64.5553 23.7933 64.7153 23.66C64.8886 23.5267 65.0153 23.3867 65.0953 23.24C65.162 23.0667 65.282 22.8733 65.4553 22.66C65.7086 22.1533 65.942 21.34 66.1553 20.22C66.262 19.9267 66.3153 19.7067 66.3153 19.56C66.3286 19.4 66.2953 19.2267 66.2153 19.04L65.8953 18.8C65.642 18.8 65.422 18.8933 65.2353 19.08L64.8553 19.38C64.7353 19.46 64.6553 19.54 64.6153 19.62C64.4286 19.74 64.2286 20 64.0153 20.4C64.0153 20.4133 63.9886 20.4533 63.9353 20.52C63.8953 20.5867 63.8486 20.7133 63.7953 20.9C63.702 21.02 63.6486 21.1267 63.6353 21.22ZM62.0553 17.68C62.0553 17.3867 62.082 17.1333 62.1353 16.92C62.1886 16.7067 62.2153 16.4267 62.2153 16.08C62.2153 15.7333 62.2353 15.3 62.2753 14.78V14.46C62.262 14.42 62.2753 14.3 62.3153 14.1C62.2753 13.7 62.282 13.4133 62.3353 13.24V13.04C62.3086 12.8 62.3353 12.62 62.4153 12.5C62.562 12.3267 62.7753 12.18 63.0553 12.06C63.3486 11.94 63.582 11.8733 63.7553 11.86H63.8553C63.9086 11.8867 63.9553 11.9067 63.9953 11.92C64.0486 11.92 64.162 11.96 64.3353 12.04C64.4953 12.1467 64.562 12.3133 64.5353 12.54C64.5486 12.62 64.5553 12.7067 64.5553 12.8C64.5553 12.8933 64.4753 13.5667 64.3153 14.82C64.1553 16.06 64.0553 16.9 64.0153 17.34L63.9953 18.18C64.0486 18.18 64.0953 18.1467 64.1353 18.08C64.1486 18.0267 64.2086 17.9733 64.3153 17.92C64.342 17.8667 64.3886 17.8267 64.4553 17.8C64.5353 17.76 64.6153 17.7067 64.6953 17.64C65.0686 17.2933 65.5886 17.12 66.2553 17.12C66.4686 17.12 66.6486 17.1667 66.7953 17.26L67.0953 17.42L67.7553 17.66C67.9686 17.7933 68.0886 17.9 68.1153 17.98L68.3153 18.76C68.342 18.9067 68.3553 19.1867 68.3553 19.6C68.3553 20 68.3153 20.3067 68.2353 20.52C68.2353 20.6533 68.1953 20.84 68.1153 21.08C68.1153 21.2133 68.0686 21.5067 67.9753 21.96C67.882 22.4133 67.742 22.8333 67.5553 23.22C67.4886 23.2867 67.422 23.4133 67.3553 23.6C67.302 23.7733 67.142 23.9933 66.8753 24.26C66.7553 24.26 66.642 24.3667 66.5353 24.58C66.402 24.7133 66.1486 24.8667 65.7753 25.04C65.2686 25.2533 64.9553 25.36 64.8353 25.36C64.7153 25.36 64.5953 25.3667 64.4753 25.38C64.3686 25.4067 64.222 25.42 64.0353 25.42C63.862 25.42 63.7086 25.44 63.5753 25.48C63.442 25.5333 63.222 25.5 62.9153 25.38C62.8753 25.34 62.682 25.26 62.3353 25.14C62.002 25.02 61.822 24.84 61.7953 24.6C61.6886 24.48 61.6286 24.3267 61.6153 24.14C61.602 23.94 61.582 23.7867 61.5553 23.68C61.542 23.5733 61.5353 23.3733 61.5353 23.08C61.522 22.8667 61.5553 22.3 61.6353 21.38C61.6753 20.8333 61.7486 20.14 61.8553 19.3C61.8953 19.1 61.962 18.56 62.0553 17.68ZM77.5073 15.46C77.5073 16.0867 77.4207 16.92 77.2473 17.96C77.3273 17.8933 77.4473 17.78 77.6073 17.62C77.794 17.4333 78.1673 17.16 78.7273 16.8L79.0273 16.58L79.6273 16.28L80.2873 15.84C80.2607 15.8133 80.294 15.7467 80.3873 15.64C80.6407 15.2 80.7873 14.8133 80.8273 14.48C80.8273 14.3067 80.8007 14.18 80.7473 14.1C80.694 14.0067 80.5273 13.9467 80.2473 13.92C80.2207 13.8933 80.094 13.86 79.8673 13.82C79.3207 13.82 78.954 13.8533 78.7673 13.92C78.594 13.9867 78.4607 14.02 78.3673 14.02L78.0673 14.1L77.7273 14.12L77.6473 14.66C77.6473 14.6733 77.6207 14.8067 77.5673 15.06C77.5673 15.1533 77.5473 15.2867 77.5073 15.46ZM80.9073 24.3C80.7073 24.2333 80.4273 24.04 80.0673 23.72C80.0007 23.6267 79.8273 23.4667 79.5473 23.24C79.2807 23.08 78.9473 22.7667 78.5473 22.3C78.5473 22.2867 78.5007 22.18 78.4073 21.98C78.2473 21.8333 78.094 21.54 77.9473 21.1C77.934 21.0867 77.914 21.06 77.8873 21.02C77.8607 20.98 77.814 20.92 77.7473 20.84C77.694 20.7467 77.634 20.5933 77.5673 20.38C77.5007 20.1667 77.3673 19.9333 77.1673 19.68H77.0873C77.0873 19.76 77.0673 19.8733 77.0273 20.02V20.42L76.9073 21.58L76.6073 23.52C76.6607 23.6267 76.6607 23.8067 76.6073 24.06C76.6073 24.1667 76.574 24.34 76.5073 24.58C76.4407 24.82 76.3407 24.98 76.2073 25.06C76.074 25.14 75.814 25.1533 75.4273 25.1C75.294 25.0467 75.1073 24.86 74.8673 24.54C74.774 24.5 74.6407 24.2867 74.4673 23.9C74.494 23.66 74.5007 23.5133 74.4873 23.46C74.474 23.3933 74.4673 23.3133 74.4673 23.22C74.4673 23.1267 74.474 23.0667 74.4873 23.04C74.4607 23.0667 74.4607 22.9333 74.4873 22.64V22.5C74.4873 22.4467 74.5273 22.2333 74.6073 21.86C74.6073 21.58 74.6073 21.3867 74.6073 21.28C74.6207 21.16 74.6673 21.02 74.7473 20.86V20.32L74.7673 19.78C74.8473 19.54 74.8873 19.26 74.8873 18.94C74.914 18.78 74.9273 18.6267 74.9273 18.48C74.9407 18.32 74.9673 18.1467 75.0073 17.96C75.0073 17.6667 75.0273 17.4467 75.0673 17.3C75.1073 17.14 75.1273 17.0333 75.1273 16.98C75.1407 16.9133 75.154 16.8133 75.1673 16.68L75.3073 15.82L75.3673 14.56L75.1273 14.4C74.7007 14.2267 74.4007 14.0533 74.2273 13.88C74.1607 13.84 74.134 13.74 74.1473 13.58C74.174 13.4067 74.2673 13.2667 74.4273 13.16C74.614 13.16 74.8873 13.0467 75.2473 12.82C75.2873 12.82 75.4073 12.7533 75.6073 12.62L75.9673 12.5C76.0073 12.46 76.174 12.3867 76.4673 12.28C76.534 12.28 76.6407 12.2467 76.7873 12.18C76.934 12.1 77.0873 12.0533 77.2473 12.04C77.3807 12.0267 77.6473 11.9933 78.0473 11.94C78.4607 11.8733 78.8073 11.88 79.0873 11.96C79.2607 11.96 79.4473 11.9933 79.6473 12.06C79.9673 12.06 80.3273 12.1667 80.7273 12.38C80.8207 12.38 80.954 12.44 81.1273 12.56L81.5073 12.74L82.0073 13.14C82.2873 13.3667 82.5407 13.6533 82.7673 14C82.9273 14.16 82.9873 14.3667 82.9473 14.62C82.7607 15.78 81.954 16.9333 80.5273 18.08L79.9473 18.34L78.9673 18.96C79.3007 19.4267 79.734 19.9733 80.2673 20.6C80.3073 20.6933 80.4607 20.88 80.7273 21.16L81.4073 22L81.6473 22.36L82.1873 22.96C82.2273 23.0533 82.3407 23.1667 82.5273 23.3L82.8673 23.62C83.174 23.86 83.3007 24.1333 83.2473 24.44C83.194 24.7467 83.0073 24.9067 82.6873 24.92L82.2073 24.88L81.2473 24.62L80.9073 24.3ZM87.9153 18.6V18.38C87.9153 18.2333 87.9086 18.16 87.8953 18.16L87.7753 18.12C87.682 18.12 87.6086 18.1067 87.5553 18.08C87.462 18.1067 87.3886 18.1467 87.3353 18.2C87.162 18.3067 87.042 18.4333 86.9753 18.58L86.5353 19.46C86.3353 19.8733 86.222 20.4067 86.1953 21.06C86.542 21.2067 86.7953 21.2 86.9553 21.04C87.0486 20.96 87.1286 20.8667 87.1953 20.76C87.222 20.6667 87.2753 20.58 87.3553 20.5C87.4353 20.4067 87.5153 20.1867 87.5953 19.84C87.8086 19.5067 87.9153 19.0933 87.9153 18.6ZM89.6953 18.88V19.1C89.6686 19.9133 89.4286 20.6467 88.9753 21.3C88.9086 21.3933 88.8153 21.5 88.6953 21.62L88.2553 22.06C88.162 22.1533 88.042 22.24 87.8953 22.32L87.4553 22.44C87.4153 22.4133 87.302 22.3867 87.1153 22.36C86.9686 22.4133 86.842 22.4 86.7353 22.32C86.722 22.32 86.6486 22.2933 86.5153 22.24C86.3953 22.1867 86.242 22.1533 86.0553 22.14C86.082 22.3533 86.0953 22.5867 86.0953 22.84L86.3353 23.76C86.482 24.04 86.622 24.22 86.7553 24.3C86.902 24.3667 87.0553 24.4067 87.2153 24.42C87.3886 24.42 87.5153 24.4 87.5953 24.36C87.6886 24.32 87.842 24.26 88.0553 24.18L88.4553 23.98C88.7353 23.82 88.9753 23.86 89.1753 24.1C89.282 24.22 89.3286 24.38 89.3153 24.58C89.302 24.7667 89.222 24.94 89.0753 25.1C88.9953 25.2867 88.7886 25.46 88.4553 25.62C88.442 25.62 88.382 25.6467 88.2753 25.7C87.6753 25.9933 87.0086 26.0333 86.2753 25.82L85.8953 25.64C85.8553 25.64 85.8153 25.62 85.7753 25.58C85.6153 25.54 85.442 25.44 85.2553 25.28C85.0686 25.12 84.9353 24.9867 84.8553 24.88C84.7886 24.7733 84.742 24.7 84.7153 24.66C84.6886 24.62 84.642 24.5333 84.5753 24.4C84.3486 23.9733 84.182 23.5667 84.0753 23.18L83.9553 22.6C83.982 22.5467 83.9886 22.3933 83.9753 22.14V21.82C83.8553 21.6067 83.9286 21.12 84.1953 20.36C84.4086 19.3467 84.582 18.7533 84.7153 18.58L84.9753 18.06C84.9753 18.0467 85.0553 17.9467 85.2153 17.76C85.242 17.6933 85.3953 17.56 85.6753 17.36C85.7286 17.28 85.8086 17.2333 85.9153 17.22C85.9686 17.1667 86.0553 17.12 86.1753 17.08C86.282 16.9867 86.442 16.9267 86.6553 16.9C86.8553 16.8333 87.162 16.8133 87.5753 16.84C88.522 16.92 89.1686 17.32 89.5153 18.04L89.6553 18.48C89.6553 18.5467 89.6753 18.6267 89.7153 18.72C89.702 18.7467 89.6953 18.8 89.6953 18.88ZM95.2047 18.48L95.0847 18.46C94.938 18.3933 94.818 18.3933 94.7247 18.46L94.1847 18.78C93.6247 19.4067 93.2847 19.9267 93.1647 20.34C93.138 20.46 93.0847 20.8267 93.0047 21.44C92.978 22 93.0247 22.42 93.1447 22.7C93.1447 22.7667 93.2047 22.8267 93.3247 22.88C93.498 22.84 93.698 22.66 93.9247 22.34L94.1447 21.94C94.4114 21.5667 94.5514 21.36 94.5647 21.32C94.5914 21.2667 94.6447 21.2 94.7247 21.12L94.8047 20.84C94.8047 20.8267 94.8314 20.7933 94.8847 20.74C94.978 20.5133 95.1047 20.2067 95.2647 19.82C95.2647 19.7 95.318 19.5333 95.4247 19.32C95.518 19.2133 95.5514 18.9933 95.5247 18.66L95.4247 18.58C95.3314 18.58 95.258 18.5467 95.2047 18.48ZM93.2847 17C93.418 17.0133 93.5447 17 93.6647 16.96C93.7847 16.92 93.958 16.9 94.1847 16.9C94.5847 16.9267 94.878 16.9733 95.0647 17.04C95.2647 17.1067 95.3647 17.1467 95.3647 17.16L95.8647 17.46C95.9714 17.5533 96.0647 17.5667 96.1447 17.5C96.358 17.34 96.5647 17.2867 96.7647 17.34C96.938 17.34 97.0847 17.4333 97.2047 17.62C97.3647 17.7533 97.478 17.8533 97.5447 17.92C97.6114 17.9733 97.638 18.0667 97.6247 18.2C97.6114 18.32 97.6047 18.9533 97.6047 20.1C97.6314 20.86 97.6247 21.3067 97.5847 21.44C97.558 21.56 97.5647 21.9133 97.6047 22.5C97.6447 22.74 97.6647 22.9133 97.6647 23.02C97.6647 23.1267 97.658 23.2267 97.6447 23.32L97.6647 24.12C97.6114 24.72 97.618 25.3133 97.6847 25.9L97.7047 26.54L98.0047 26.4C98.3914 26.2533 98.7114 26.5533 98.9647 27.3C98.858 27.5133 98.7847 27.6533 98.7447 27.72C98.7314 27.7333 98.618 27.9533 98.4047 28.38C98.4047 28.4333 98.3647 28.5133 98.2847 28.62C98.0447 28.9267 97.7514 29.0867 97.4047 29.1C97.0714 29.1133 96.7847 29.0733 96.5447 28.98C96.478 28.98 96.4314 28.9467 96.4047 28.88L96.1047 28.36V28.32L96.0847 28.14C95.9914 28.1133 95.938 28.04 95.9247 27.92C95.9114 27.88 95.9047 27.84 95.9047 27.8V27.7C95.7847 27.3667 95.7447 27.1333 95.7847 27C95.8514 26.7467 95.8314 26.52 95.7247 26.32C95.6314 26.12 95.5847 25.94 95.5847 25.78C95.5847 25.6333 95.6047 25.4933 95.6447 25.36C95.698 25.24 95.7114 25.12 95.6847 25V24.78L95.6247 24.2C95.478 23.96 95.4714 23.6667 95.6047 23.32V22.96L95.6247 22.68V22.56L95.4647 22.86L94.6247 24.06C94.5047 24.18 94.4247 24.2533 94.3847 24.28C94.3447 24.2933 94.2047 24.2867 93.9647 24.26C93.7247 24.2333 93.5647 24.1933 93.4847 24.14C93.4314 24.14 93.2914 24.1067 93.0647 24.04C92.8914 24.04 92.738 24.0067 92.6047 23.94C92.4714 23.86 92.3847 23.8133 92.3447 23.8C92.278 23.7733 92.138 23.7 91.9247 23.58C91.7514 23.58 91.5914 23.42 91.4447 23.1L91.3447 22.92C91.2514 22.84 91.2047 22.7267 91.2047 22.58C91.1514 22.5267 91.118 22.3867 91.1047 22.16C91.0647 22.12 91.058 22.04 91.0847 21.92C91.058 21.7067 91.0447 21.3267 91.0447 20.78C91.0447 20.22 91.1314 19.6133 91.3047 18.96C91.3047 18.7333 91.458 18.4467 91.7647 18.1L91.8447 18C91.8847 17.8667 92.0314 17.7133 92.2847 17.54C92.378 17.4333 92.578 17.32 92.8847 17.2L93.2847 17ZM106.394 19.46L106.414 19.84C106.414 19.88 106.454 20.3 106.534 21.1V21.34C106.534 21.66 106.588 22.14 106.694 22.78C106.694 23.06 106.834 23.5467 107.114 24.24C107.181 24.28 107.228 24.3733 107.254 24.52L107.234 24.72C107.261 24.7867 107.228 24.86 107.134 24.94C107.134 25.0333 107.008 25.08 106.754 25.08C106.501 25.08 106.341 25.0933 106.274 25.12C106.208 25.1467 106.101 25.1333 105.954 25.08C105.901 25.1067 105.741 25.0533 105.474 24.92C105.354 24.8933 105.261 24.7733 105.194 24.56L105.034 24.18C105.034 23.94 104.968 23.7267 104.834 23.54C104.834 23.4733 104.801 23.3533 104.734 23.18C104.681 23.0067 104.641 22.9133 104.614 22.9C104.481 23.4333 104.314 23.8467 104.114 24.14C104.114 24.2067 104.074 24.2867 103.994 24.38L103.794 24.76C103.794 24.7867 103.734 24.86 103.614 24.98C103.534 25.1533 103.354 25.24 103.074 25.24C102.821 25.24 102.514 25.1733 102.154 25.04C102.061 25.0267 101.874 24.9667 101.594 24.86C101.514 24.8733 101.388 24.8533 101.214 24.8C101.054 24.7333 100.961 24.7 100.934 24.7C100.894 24.66 100.801 24.5933 100.654 24.5L100.314 24.14C100.301 24.1267 100.274 24.0667 100.234 23.96C100.208 23.84 100.201 23.76 100.214 23.72C100.228 23.6667 100.228 23.5933 100.214 23.5C100.201 23.4067 100.208 23.3133 100.234 23.22C100.234 22.9533 100.261 22.66 100.314 22.34C100.301 22.3 100.294 22.2533 100.294 22.2C100.294 22.1467 100.321 22.0467 100.374 21.9C100.361 21.8333 100.354 21.7867 100.354 21.76L100.454 20.98C100.454 20.7933 100.461 20.66 100.474 20.58V20.28C100.488 20.2267 100.494 20.1533 100.494 20.06L100.594 19.1C100.594 18.9533 100.601 18.86 100.614 18.82V18.62C100.641 18.5933 100.654 18.4867 100.654 18.3L100.834 17.74L100.974 17.5C100.988 17.4467 101.061 17.3867 101.194 17.32C101.408 17.1867 101.714 17.12 102.114 17.12C102.274 17.1467 102.448 17.2133 102.634 17.32C102.674 17.3067 102.768 17.3333 102.914 17.4C103.181 17.52 103.194 17.86 102.954 18.42C102.901 18.78 102.874 18.9667 102.874 18.98C102.821 19.0867 102.794 19.1733 102.794 19.24C102.714 19.6667 102.674 19.8933 102.674 19.92C102.728 19.8667 102.708 19.9467 102.614 20.16L102.534 20.9C102.441 21.22 102.401 21.5733 102.414 21.96L102.334 22.22C102.348 22.2867 102.341 22.4933 102.314 22.84C102.341 22.88 102.354 22.9267 102.354 22.98L102.374 23.14C102.361 23.18 102.368 23.22 102.394 23.26C102.421 23.2867 102.494 23.3 102.614 23.3C102.748 23.2867 102.861 23.2533 102.954 23.2C103.141 22.9733 103.268 22.74 103.334 22.5C103.401 22.2467 103.434 22.1 103.434 22.06C103.661 21.4867 103.801 21.1533 103.854 21.06C103.921 20.7 104.034 20.2867 104.194 19.82C104.168 19.7533 104.168 19.62 104.194 19.42L104.454 18.36C104.574 18.16 104.634 18.04 104.634 18C104.634 17.9467 104.714 17.76 104.874 17.44C104.874 17.3867 104.914 17.28 104.994 17.12C105.088 16.9733 105.254 16.8333 105.494 16.7H105.554C105.848 16.6733 106.101 16.7133 106.314 16.82C106.341 16.8733 106.354 16.9667 106.354 17.1C106.381 17.2333 106.408 17.4733 106.434 17.82V18.02L106.354 18.46C106.461 18.7933 106.474 19.1267 106.394 19.46ZM112.423 17.66C112.397 17.5933 112.303 17.5667 112.143 17.58C111.997 17.5933 111.883 17.6733 111.803 17.82C111.257 18.6867 110.963 19.6133 110.923 20.6C111.377 20.7067 111.763 20.5067 112.083 20C112.497 18.6933 112.61 17.9133 112.423 17.66ZM110.863 25.6L110.663 25.56L110.383 25.28C110.303 25.28 110.243 25.2467 110.203 25.18C110.057 25.0067 109.79 24.66 109.403 24.14L109.103 23.04C109.103 22.8267 109.063 22.64 108.983 22.48C108.85 21.88 108.77 21.54 108.743 21.46C108.717 21.3667 108.697 21.12 108.683 20.72C108.683 20.32 108.703 20.0267 108.743 19.84C108.783 19.5867 109.03 18.96 109.483 17.96C109.603 17.84 109.677 17.68 109.703 17.48L110.023 17.02C110.317 16.6733 110.63 16.42 110.963 16.26C110.963 16.2333 111.19 16.1667 111.643 16.06C111.737 16.0467 111.95 16.08 112.283 16.16C113.083 16.3467 113.583 16.58 113.783 16.86L113.843 16.96C114.097 17.32 114.243 17.8733 114.283 18.62C114.243 18.9533 114.21 19.2333 114.183 19.46C114.157 19.6867 114.01 20.1 113.743 20.7C113.543 21.0733 113.35 21.3733 113.163 21.6C112.87 21.8133 112.67 21.92 112.563 21.92C112.51 21.9467 112.397 21.96 112.223 21.96H111.763C111.723 21.9467 111.637 21.94 111.503 21.94C111.37 21.94 111.177 21.9067 110.923 21.84C110.923 22.1333 111.003 22.5533 111.163 23.1C111.337 23.6333 111.477 23.96 111.583 24.08C111.863 24.2933 112.083 24.4333 112.243 24.5C112.403 24.5667 112.617 24.58 112.883 24.54C113.15 24.4867 113.343 24.3933 113.463 24.26L113.983 23.62C114.317 23.1667 114.657 23.1267 115.003 23.5C115.163 23.6733 115.223 23.8467 115.183 24.02C115.157 24.18 115.023 24.5067 114.783 25C114.583 25.32 114.37 25.5867 114.143 25.8C113.73 26.0133 113.483 26.12 113.403 26.12C113.283 26.1333 113.097 26.1133 112.843 26.06C112.71 26.1267 112.483 26.12 112.163 26.04C112.163 26.0133 112.123 25.9933 112.043 25.98C111.977 25.98 111.883 25.96 111.763 25.92L111.803 25.9C111.777 25.9 111.697 25.9 111.563 25.9L111.003 25.6H110.863ZM116.303 19.3C116.289 19.14 116.296 18.8333 116.323 18.38L116.463 17.7L116.863 16.84L117.183 16.44C117.183 16.3333 117.529 16.1867 118.223 16H118.243C118.389 15.9867 118.616 16 118.923 16.04C119.243 16.08 119.549 16.2133 119.843 16.44C120.136 16.6533 120.336 16.8333 120.443 16.98C120.723 17.54 120.843 18.06 120.803 18.54C120.803 18.6733 120.736 18.8333 120.603 19.02C120.589 19.0467 120.489 19.0867 120.303 19.14C120.116 19.1933 119.963 19.2 119.843 19.16C119.723 19.1067 119.583 19.0267 119.423 18.92C119.263 18.8133 119.189 18.6467 119.203 18.42C119.083 18.2867 119.056 18.1133 119.123 17.9C119.149 17.74 119.129 17.62 119.063 17.54L118.823 17.44C118.743 17.4667 118.663 17.5867 118.583 17.8C118.516 18.0133 118.483 18.2733 118.483 18.58C118.483 19.14 118.623 19.6467 118.903 20.1C118.996 20.2467 119.156 20.42 119.383 20.62L119.743 21.06L120.263 21.54L120.643 22.06C120.736 22.1533 120.863 22.36 121.023 22.68C121.196 22.9867 121.283 23.2667 121.283 23.52C121.283 23.76 121.209 24.0667 121.063 24.44L120.883 24.7C120.883 24.7267 120.809 24.8133 120.663 24.96C120.263 25.36 119.829 25.6067 119.363 25.7H119.223C118.796 25.7533 118.376 25.7467 117.963 25.68L117.343 25.52C117.276 25.52 117.203 25.4933 117.123 25.44C117.043 25.4 116.969 25.3667 116.903 25.34C116.596 25.14 116.409 24.98 116.343 24.86C116.276 24.82 116.229 24.6333 116.203 24.3C116.109 24.1 116.129 23.8267 116.263 23.48C116.263 23.28 116.283 23.1267 116.323 23.02C116.576 22.7267 116.903 22.66 117.303 22.82C117.436 22.8733 117.503 22.98 117.503 23.14C117.503 23.18 117.523 23.32 117.563 23.56C117.616 23.7867 117.696 24 117.803 24.2C117.909 24.4 118.056 24.5 118.243 24.5C118.429 24.5 118.623 24.4267 118.823 24.28C119.036 23.8667 119.143 23.64 119.143 23.6L119.183 23.32C119.209 23.12 119.149 22.9133 119.003 22.7C118.963 22.54 118.869 22.38 118.723 22.22L118.423 21.78L118.123 21.5C118.069 21.4867 117.903 21.38 117.623 21.18C117.609 21.14 117.536 21.0467 117.403 20.9C117.269 20.7533 117.143 20.5733 117.023 20.36C116.903 20.1333 116.749 19.9333 116.563 19.76C116.549 19.6667 116.463 19.5133 116.303 19.3ZM122.127 17.16C122.087 16.96 122.061 16.8467 122.047 16.82C121.981 16.6867 121.947 16.5667 121.947 16.46C121.947 16.3533 121.941 16.3 121.927 16.3C121.954 15.9933 122.074 15.7667 122.287 15.62C122.501 15.46 122.801 15.42 123.187 15.5L123.827 15.74L124.747 15.96L125.207 14.64C125.327 14.4267 125.387 14.28 125.387 14.2C125.401 14.12 125.427 14.0333 125.467 13.94C125.521 13.7533 125.574 13.6133 125.627 13.52L125.707 13.2C125.801 13.0267 125.987 12.9133 126.267 12.86C126.427 12.7933 126.567 12.7933 126.687 12.86C127.047 12.8733 127.321 13.0067 127.507 13.26C127.507 13.3267 127.487 13.4333 127.447 13.58C127.407 13.7267 127.374 13.92 127.347 14.16L126.847 16.16H127.007L127.507 16.14C127.574 16.1533 127.647 16.16 127.727 16.16C128.021 16.0933 128.247 16.0533 128.407 16.04C128.567 16.0133 128.674 15.9933 128.727 15.98C128.767 15.9933 128.881 15.9933 129.067 15.98C129.254 15.9667 129.447 16.0267 129.647 16.16C129.847 16.28 129.947 16.4333 129.947 16.62C129.947 16.7933 129.821 16.9467 129.567 17.08L129.387 17.32C129.174 17.4 128.987 17.4933 128.827 17.6C128.641 17.7067 127.874 17.8867 126.527 18.14L126.387 19.16C126.414 19.2267 126.427 19.28 126.427 19.32C126.334 19.8933 126.254 20.6067 126.187 21.46C126.201 21.7667 126.207 21.9733 126.207 22.08V22.62C126.194 22.6467 126.187 22.7333 126.187 22.88C126.187 23.2133 126.227 23.6067 126.307 24.06C126.387 24.5 126.434 24.7667 126.447 24.86C126.461 24.9533 126.467 25.06 126.467 25.18C126.454 25.4067 126.361 25.5533 126.187 25.62C125.761 25.62 125.401 25.5467 125.107 25.4C124.867 25.36 124.761 25.3067 124.787 25.24C124.694 25.1733 124.587 25.0467 124.467 24.86C124.467 24.7533 124.461 24.6933 124.447 24.68C124.354 24.64 124.307 24.5333 124.307 24.36C124.294 24.3467 124.281 24.3 124.267 24.22L124.127 23.72C124.007 23.56 123.967 23.3467 124.007 23.08C124.007 23.0267 123.987 22.96 123.947 22.88V22.74C123.947 22.6333 123.954 22.5533 123.967 22.5C123.901 22.1267 123.907 21.6867 123.987 21.18C124.067 20.66 124.121 20.2867 124.147 20.06C124.121 19.9933 124.134 19.9067 124.187 19.8C124.187 19.68 124.214 19.4933 124.267 19.24L124.447 18.1C124.367 18.0733 124.287 18.06 124.207 18.06C123.501 17.9 123.134 17.8 123.107 17.76L122.867 17.62C122.774 17.62 122.641 17.5733 122.467 17.48C122.294 17.3733 122.181 17.2667 122.127 17.16Z" fill="black"/>
</svg>
