<svg width="96" height="37" viewBox="0 0 96 37" fill="none" xmlns="http://www.w3.org/2000/svg">
<rect x="1.5" y="2" width="93" height="33" rx="4" fill="black"/>
<rect x="1.5" y="2" width="93" height="33" rx="4" stroke="black" stroke-width="2"/>
<path d="M30.38 15L30.24 17.38C30.3067 17.34 30.5733 17.3133 31.04 17.3C31.5067 17.2733 31.8133 17.2733 31.96 17.3L32.7 17.64C32.8867 17.76 33.1067 17.9667 33.36 18.26C33.52 18.6067 33.3267 18.8733 32.78 19.06C32.26 19.14 31.9267 19.18 31.78 19.18L30.2 19.26V20.18C30.28 21.82 30.32 22.7733 30.32 23.04C30.3867 23.44 30.42 23.68 30.42 23.76V24.2C30.42 24.4533 30.3867 24.6133 30.32 24.68C30.16 24.88 30.06 24.9867 30.02 25C29.4733 25.2133 28.8933 25.08 28.28 24.6L27.96 24.18C27.96 24.1267 27.92 23.9267 27.84 23.58C27.8533 23.54 27.8 23.32 27.68 22.92C27.68 22.84 27.6933 22.74 27.72 22.62C27.76 22.5 27.78 22.3667 27.78 22.22C27.78 22.0733 27.7467 21.92 27.68 21.76C27.68 21.5867 27.6667 21.4333 27.64 21.3V21.1C27.6667 20.9533 27.68 20.8 27.68 20.64C27.6933 20.4667 27.7133 20.3 27.74 20.14C27.78 19.9667 27.7867 19.8067 27.76 19.66V19.6C27.5733 19.5067 27.4333 19.4667 27.34 19.48C27.26 19.4933 27.1667 19.4533 27.06 19.36C26.9667 19.2533 26.9133 19.1533 26.9 19.06C26.8867 18.9667 27.0267 18.78 27.32 18.5C27.3467 18.4467 27.5067 18.3533 27.8 18.22V17.82L27.9 16.7C27.86 16.34 27.86 16.0667 27.9 15.88C27.94 15.6933 27.9467 15.54 27.92 15.42L28.04 14.98C27.3733 15.1 26.8933 15.1267 26.6 15.06C26.3467 14.94 26.2133 14.7467 26.2 14.48C26.1867 14.4667 26.22 14.2733 26.3 13.9C26.26 13.7133 26.42 13.48 26.78 13.2C27.0733 13.0667 27.3533 12.9733 27.62 12.92C28.1267 12.7467 28.58 12.6333 28.98 12.58C29.7667 12.4467 30.4 12.3333 30.88 12.24L31.82 11.9C32.0333 11.78 32.18 11.7267 32.26 11.74C32.3533 11.7533 32.4867 11.7267 32.66 11.66C32.6867 11.5933 32.84 11.5333 33.12 11.48C33.6933 11.3733 34.0267 11.4333 34.12 11.66C34.24 11.6867 34.4 11.78 34.6 11.94C34.64 11.9533 34.7933 12.2133 35.06 12.72C35.1 12.8267 35.08 12.94 35 13.06C34.92 13.1667 34.7933 13.2267 34.62 13.24L34.08 13.44C33.92 13.4533 33.6933 13.5267 33.4 13.66C32.8533 13.8067 32.5467 13.88 32.48 13.88C32.4133 13.88 32.3467 13.8867 32.28 13.9C32.08 13.94 31.8667 13.9933 31.64 14.06C31.4133 14.1267 31.22 14.16 31.06 14.16C30.6867 14.24 30.48 14.3333 30.44 14.44C30.4267 14.4667 30.42 14.5067 30.42 14.56L30.38 14.8V15ZM39.0639 19.1C38.9706 18.5667 38.7106 18.32 38.2839 18.36C38.0439 18.3733 37.8372 18.5333 37.6639 18.84C37.4239 19.3067 37.3172 19.9133 37.3439 20.66C37.3839 21.3933 37.4372 21.9267 37.5039 22.26C37.5839 22.58 37.7172 22.86 37.9039 23.1C38.0106 23.2867 38.1706 23.3733 38.3839 23.36C38.7572 23.36 39.0306 23.0467 39.2039 22.42L39.3639 21.94C39.4306 21.8733 39.4439 21.8067 39.4039 21.74C39.5372 21.4067 39.6106 21.0133 39.6239 20.56C39.4906 20.4667 39.4106 20.38 39.3839 20.3C39.3039 20.0733 39.2639 19.92 39.2639 19.84C39.1706 19.7733 39.1172 19.6467 39.1039 19.46C39.0906 19.2733 39.0772 19.1533 39.0639 19.1ZM35.4039 20.98L35.4839 19.96C35.5772 19.04 35.8572 18.2533 36.3239 17.6C36.7772 17.0533 37.4172 16.7733 38.2439 16.76H38.3639C39.1372 16.76 39.6972 16.9267 40.0439 17.26C40.4172 17.5533 40.6906 17.8733 40.8639 18.22C41.0506 18.5667 41.1706 18.82 41.2239 18.98C41.2772 19.14 41.3106 19.3733 41.3239 19.68C41.3506 20.2533 41.2372 20.58 40.9839 20.66C41.1706 21.9267 41.0572 22.9333 40.6439 23.68C40.5106 23.9867 40.3172 24.32 40.0639 24.68C39.8772 24.92 39.5439 25.0533 39.0639 25.08C38.5839 25.08 38.1639 25.0533 37.8039 25C37.4572 24.9467 37.0706 24.78 36.6439 24.5C36.2172 24.2067 35.9172 23.7333 35.7439 23.08C35.5572 22.4533 35.4439 21.7533 35.4039 20.98ZM43.7202 14.3L43.8602 13.12L43.8802 12.5C43.8802 12.3267 43.9135 12.1933 43.9802 12.1L44.1802 11.82C44.5402 11.54 44.7735 11.38 44.8802 11.34C44.9868 11.3 45.1402 11.3067 45.3402 11.36C45.5535 11.4 45.6802 11.44 45.7202 11.48L45.9402 11.66C46.0602 11.7267 46.1202 11.8333 46.1202 11.98C46.1868 12.06 46.2068 12.12 46.1802 12.16C46.1002 12.2533 45.9668 13.04 45.7802 14.52L45.6202 17.24L45.5202 17.78C45.5202 17.9533 45.5268 18.0533 45.5402 18.08V18.44C45.5135 18.7067 45.4868 18.8733 45.4602 18.94C45.4602 19.0067 45.4468 19.08 45.4202 19.16C45.4468 19.1867 45.4602 19.2933 45.4602 19.48C45.4602 19.6533 45.4402 19.76 45.4002 19.8C45.3735 20.0133 45.3602 20.22 45.3602 20.42C45.3602 20.6067 45.3735 20.8067 45.4002 21.02C45.4402 21.22 45.4535 21.42 45.4402 21.62L45.5202 22.38V22.68C45.5468 22.92 45.5602 23.1133 45.5602 23.26L45.6602 24.3L45.7402 24.84C45.7802 25.0667 45.7602 25.2867 45.6802 25.5C45.6135 25.7133 45.5068 25.8467 45.3602 25.9C44.9468 26.0733 44.4935 25.96 44.0002 25.56H43.8402C43.7468 25.4533 43.6735 25.3067 43.6202 25.12C43.5135 25.0667 43.4668 24.9733 43.4802 24.84C43.4935 24.7067 43.4668 24.5867 43.4002 24.48C43.3335 24.3733 43.3002 24.28 43.3002 24.2C43.3002 24.0267 43.2868 23.8733 43.2602 23.74L43.2802 23.58C43.2402 23.54 43.2202 23.48 43.2202 23.4L43.1802 23.04V22.88C43.1802 22.7733 43.1735 22.7 43.1602 22.66C43.1602 22.62 43.1802 22.5533 43.2202 22.46C43.1802 22.4067 43.1735 22.2133 43.2002 21.88C43.2802 20.8533 43.3202 20.1467 43.3202 19.76L43.3402 19.28V18.7C43.3535 18.38 43.3602 17.9733 43.3602 17.48C43.3735 16.9867 43.4002 16.72 43.4402 16.68L43.4202 16.5C43.4202 16.18 43.4668 15.7467 43.5602 15.2C43.6668 14.64 43.7202 14.34 43.7202 14.3ZM48.3448 14.56C48.3848 14.44 48.3982 14.3267 48.3848 14.22C48.3715 14.1133 48.3782 13.8467 48.4048 13.42C48.4715 13.3 48.4782 13.0667 48.4248 12.72C48.4248 12.52 48.5048 12.3133 48.6648 12.1C48.8248 11.8733 48.9982 11.7067 49.1848 11.6V11.62C49.2382 11.5667 49.3582 11.5267 49.5448 11.5C49.9982 11.4333 50.3248 11.5733 50.5248 11.92C50.4715 12.0133 50.4448 12.3133 50.4448 12.82V14.86C50.4582 15.1933 50.4648 15.6467 50.4648 16.22V16.98L50.5448 18.28C50.5448 18.6267 50.5648 18.9733 50.6048 19.32C50.6048 19.96 50.6182 20.3467 50.6448 20.48C50.6715 20.6133 50.6848 20.7067 50.6848 20.76V21.08C50.6848 21.3733 50.6982 21.5867 50.7248 21.72C50.7248 21.8533 50.7582 21.9933 50.8248 22.14C50.7582 22.34 50.7582 22.5667 50.8248 22.82C50.8915 22.98 50.9115 23.1867 50.8848 23.44C50.9648 23.6 50.9915 23.8133 50.9648 24.08L51.0248 24.2L51.0648 24.38C51.1182 24.5533 51.0915 24.76 50.9848 25C50.8915 25.2267 50.6915 25.38 50.3848 25.46C50.0915 25.5533 49.7582 25.4133 49.3848 25.04C49.3715 25 49.2982 24.94 49.1648 24.86C49.0048 24.7667 48.8715 24.4533 48.7648 23.92C48.6982 23.7867 48.6648 23.6467 48.6648 23.5C48.5182 23.38 48.4448 23.2 48.4448 22.96V22.52C48.4315 22.32 48.4048 22.1867 48.3648 22.12C48.3248 22.0667 48.2915 21.9267 48.2648 21.7L48.3048 20.36C48.3048 19.92 48.2915 19.58 48.2648 19.34V17.98C48.2248 17.54 48.2048 17.2067 48.2048 16.98C48.2048 16.74 48.2515 16.2667 48.3448 15.56C48.3448 15.5067 48.3248 15.4333 48.2848 15.34C48.3248 15.14 48.3448 14.88 48.3448 14.56ZM57.0477 20.16L56.9477 19.64C56.9477 19.6 56.9343 19.5533 56.9077 19.5C56.8943 19.4467 56.8743 19.3467 56.8477 19.2C56.741 19.12 56.6677 19.06 56.6277 19.02L56.5277 18.86L56.4677 18.68C56.401 18.64 56.361 18.5867 56.3477 18.52C56.3477 18.44 56.321 18.38 56.2677 18.34C56.2277 18.2867 56.1943 18.24 56.1677 18.2C56.141 18.1467 56.1143 18.1133 56.0877 18.1C55.9677 18.02 55.8077 18.0133 55.6077 18.08C55.4077 18.1467 55.2877 18.24 55.2477 18.36C55.021 18.8667 54.9077 19.1933 54.9077 19.34C54.721 19.98 54.6677 20.4333 54.7477 20.7C54.721 21.1267 54.7743 21.7133 54.9077 22.46V22.68C55.0277 22.84 55.141 23.0533 55.2477 23.32C55.381 23.4933 55.4677 23.62 55.5077 23.7C55.561 23.7667 55.5943 23.8067 55.6077 23.82C55.741 23.9133 55.821 23.98 55.8477 24.02C55.9543 23.9667 56.0277 23.9267 56.0677 23.9V23.76C56.1343 23.7067 56.1943 23.6667 56.2477 23.64C56.2343 23.64 56.281 23.5933 56.3877 23.5L56.4877 23.4C56.6877 22.9733 56.7877 22.7533 56.7877 22.74C56.7877 22.7133 56.781 22.6667 56.7677 22.6C56.7143 22.48 56.7477 22.3867 56.8677 22.32C56.8677 22.32 56.9477 22.0867 57.1077 21.62V21.5C57.1343 21.42 57.121 21.36 57.0677 21.32V21.18C57.0943 21.1267 57.1077 21.0733 57.1077 21.02C57.161 20.8067 57.181 20.68 57.1677 20.64C57.1677 20.6 57.1743 20.5533 57.1877 20.5C57.201 20.4333 57.221 20.3867 57.2477 20.36C57.2877 20.3067 57.221 20.24 57.0477 20.16ZM54.2077 16.38C54.3277 16.38 54.4143 16.3667 54.4677 16.34C54.5343 16.3 54.6477 16.2533 54.8077 16.2C54.981 16.1467 55.381 16.1467 56.0077 16.2C56.3543 16.2667 56.741 16.44 57.1677 16.72C57.6077 16.9333 57.961 17.2267 58.2277 17.6C58.601 18.5867 58.8077 19.4467 58.8477 20.18C58.8743 21.3 58.7677 22.2267 58.5277 22.96C58.1943 23.8 57.9743 24.2933 57.8677 24.44C57.841 24.6133 57.7343 24.84 57.5477 25.12C57.481 25.12 57.4277 25.1267 57.3877 25.14C57.3877 25.1533 57.3477 25.1933 57.2677 25.26C57.201 25.34 57.101 25.38 56.9677 25.38C56.7943 25.42 56.6877 25.4533 56.6477 25.48C56.621 25.52 56.5543 25.54 56.4477 25.54L55.9477 25.58H55.4077C55.0477 25.58 54.761 25.5333 54.5477 25.44L53.9477 25.04L53.7477 24.8C53.7077 24.8 53.681 24.7867 53.6677 24.76C53.6677 24.72 53.661 24.6867 53.6477 24.66C53.5277 24.5667 53.4677 24.46 53.4677 24.34C53.321 24.1133 53.2477 23.9533 53.2477 23.86C53.2477 23.7667 53.2277 23.7 53.1877 23.66C53.1877 23.46 53.1277 23.1667 53.0077 22.78L52.9677 22.5V22.28C52.9543 22.08 52.901 21.8467 52.8077 21.58C52.8343 21.5533 52.8343 21.48 52.8077 21.36C52.8077 21.0533 52.8143 20.8467 52.8277 20.74L52.7677 20.48C52.8077 20.4 52.821 20.3267 52.8077 20.26C52.8077 20.1933 52.8277 20.0933 52.8677 19.96V19.82L52.9477 19.12C52.9477 19.0267 52.961 18.9533 52.9877 18.9V18.76C53.0143 18.76 53.0343 18.6933 53.0477 18.56L53.1477 18.4L53.1677 18.24C53.1677 18.2 53.161 18.16 53.1477 18.12L53.2477 17.82C53.2477 17.7933 53.2943 17.7133 53.3877 17.58C53.3877 17.5133 53.4343 17.4133 53.5277 17.28C53.5277 17.2133 53.561 17.1333 53.6277 17.04C53.6277 16.92 53.701 16.7667 53.8477 16.58C53.981 16.4467 54.101 16.38 54.2077 16.38ZM64.3997 20.88L64.7397 19.48C64.7397 19.4267 64.7797 19.32 64.8597 19.16C64.953 18.9867 65.0064 18.88 65.0197 18.84C65.0997 18.8 65.233 18.7867 65.4197 18.8C65.713 18.8267 65.9864 18.9667 66.2397 19.22C66.3464 19.2467 66.393 19.3467 66.3797 19.52C66.4197 19.48 66.413 19.5667 66.3597 19.78C66.2797 20.18 66.1997 20.44 66.1197 20.56C66.053 20.8933 66.0197 21.3667 66.0197 21.98C65.993 22.42 66.0264 22.7933 66.1197 23.1C66.1197 23.4733 66.1864 23.76 66.3197 23.96L66.4797 23.46C66.4797 23.26 66.5197 23.0333 66.5997 22.78C66.5997 22.74 66.6197 22.6067 66.6597 22.38C66.713 22.1533 66.753 21.9667 66.7797 21.82C66.8064 21.66 66.833 21.54 66.8597 21.46C66.953 21.18 67.0397 20.9267 67.1197 20.7C67.1464 20.5133 67.1797 20.3533 67.2197 20.22C67.2597 20.0867 67.293 19.9533 67.3197 19.82C67.5064 19.38 67.5997 19.0333 67.5997 18.78C67.7064 18.22 67.8264 17.8333 67.9597 17.62C68.093 17.4067 68.2664 17.3 68.4797 17.3C68.693 17.3 68.8264 17.3067 68.8797 17.32C69.0397 17.2933 69.2064 17.4133 69.3797 17.68C69.4597 17.8533 69.513 17.9867 69.5397 18.08C69.5264 18.1467 69.513 18.2867 69.4997 18.5C69.4864 18.7133 69.453 18.94 69.3997 19.18C69.373 19.4733 69.3397 19.6667 69.2997 19.76C69.1797 20.04 69.0997 20.3667 69.0597 20.74C69.033 21.1 68.993 21.3467 68.9397 21.48C68.8197 21.6933 68.7397 21.9667 68.6997 22.3C68.673 22.62 68.5997 22.9133 68.4797 23.18C68.373 23.4333 68.3064 23.6667 68.2797 23.88L68.1197 24.14C67.813 24.94 67.453 25.42 67.0397 25.58H66.6597C66.513 25.58 66.3197 25.5467 66.0797 25.48C66.0797 25.4667 65.9997 25.42 65.8397 25.34C65.4797 25.02 65.2464 24.7867 65.1397 24.64C64.913 24.24 64.7797 23.9333 64.7397 23.72C64.5264 24.2667 64.3197 24.7467 64.1197 25.16C64.0664 25.2133 63.9264 25.5 63.6997 26.02C63.6064 26.1533 63.433 26.2467 63.1797 26.3L62.6797 26.18C62.493 26.18 62.313 26.14 62.1397 26.06L61.6197 25.9C61.5797 25.9667 61.4997 25.96 61.3797 25.88C61.2597 25.8 61.1464 25.6933 61.0397 25.56L60.9597 25.34C60.8397 25.34 60.7797 25.2333 60.7797 25.02C60.7797 25.0067 60.753 24.9 60.6997 24.7C60.6597 24.5 60.673 24.36 60.7397 24.28C60.753 24.04 60.7597 23.6533 60.7597 23.12C60.813 22.9467 60.8397 22.6667 60.8397 22.28L60.9997 20.32L61.0997 19.52C61.0997 19.5867 61.1064 19.58 61.1197 19.5C61.133 19.4067 61.153 19.3133 61.1797 19.22C61.1797 18.9533 61.2397 18.7 61.3597 18.46C61.5064 17.8867 61.5797 17.6 61.5797 17.6C61.7264 17.0533 61.933 16.76 62.1997 16.72C62.493 16.7467 62.7464 16.8067 62.9597 16.9C63.3064 17.06 63.4464 17.36 63.3797 17.8C63.233 18.6267 63.113 19.64 63.0197 20.84C62.953 21.4133 62.913 21.72 62.8997 21.76V23.84L63.0797 23.9C63.1864 23.7133 63.273 23.5333 63.3397 23.36C63.4064 23.1733 63.4797 22.9733 63.5597 22.76C63.6397 22.5333 63.8064 22.1933 64.0597 21.74L64.3997 20.88Z" fill="white"/>
</svg>
