<svg width="20" height="20" viewBox="0 0 20 20" fill="none" xmlns="http://www.w3.org/2000/svg">
<path d="M10 0.5C10.5972 0.5 11.1452 0.667704 11.6504 1.00391V1.00488C12.1643 1.35097 12.5587 1.79909 12.832 2.35938L13.0371 2.78027L13.4697 2.60352C13.8106 2.46451 14.1686 2.39453 14.5547 2.39453C15.4092 2.39453 16.1306 2.70613 16.7461 3.35547C17.3623 4.00574 17.668 4.78009 17.668 5.71094C17.668 6.15241 17.6019 6.53832 17.4766 6.87793L17.3184 7.30664L17.7305 7.50195C18.2629 7.75483 18.6896 8.14276 19.0117 8.67773V8.67871C19.3356 9.22075 19.5 9.81513 19.5 10.4688C19.5 11.0842 19.3528 11.6476 19.0605 12.1641C18.7653 12.6858 18.3787 13.0833 17.8965 13.3594L17.5996 13.5283L17.6504 13.8662C17.6603 13.9333 17.668 14.0667 17.668 14.2852C17.668 15.1024 17.4315 15.7973 16.9619 16.3916L16.7461 16.6406C16.1306 17.29 15.4092 17.6016 14.5547 17.6016C14.1722 17.6016 13.8104 17.5315 13.4697 17.3926L13.0371 17.2158L12.832 17.6367C12.5923 18.1281 12.263 18.5319 11.8389 18.8564L11.6514 18.9902L11.6484 18.9932C11.1462 19.3347 10.5997 19.5 10 19.5C9.45745 19.5 8.96849 19.3741 8.52539 19.1201L8.33887 19.0039L8.33496 19.002L8.15234 18.8711C7.73716 18.5532 7.41085 18.1466 7.16992 17.6406L6.9668 17.2139L6.53027 17.3926C6.18938 17.5316 5.83145 17.6016 5.44531 17.6016C4.69733 17.6016 4.04729 17.3632 3.47852 16.8672L3.24023 16.6387L3.23926 16.6377L3.12598 16.5146C2.57973 15.8939 2.30859 15.1569 2.30859 14.2852C2.30859 14.2441 2.3111 14.1895 2.31738 14.1191L2.34766 13.8574L2.39062 13.5273L2.10254 13.3604C1.67783 13.1143 1.32777 12.7815 1.0498 12.3535L0.935547 12.1641C0.646778 11.6469 0.5 11.0835 0.5 10.4688C0.5 9.89669 0.625312 9.37023 0.873047 8.8877L0.987305 8.68359C1.30954 8.14767 1.73654 7.75903 2.26953 7.50586L2.68164 7.31055L2.52344 6.88184C2.37864 6.48876 2.30859 6.09786 2.30859 5.71484C2.30859 4.7849 2.6173 4.00805 3.23926 3.3623C3.86445 2.7133 4.59171 2.39844 5.44531 2.39844C5.82783 2.39844 6.18964 2.46852 6.53027 2.60742L6.96289 2.78418L7.16797 2.36328C7.40773 1.87189 7.737 1.46808 8.16113 1.14355L8.34863 1.00977L8.34961 1.00879C8.85448 0.668845 9.40202 0.5 10 0.5ZM13.0117 5.69629L12.8984 5.70801L12.8896 5.70898C12.566 5.76078 12.2898 5.92541 12.0928 6.20117L12.0879 6.20801L12.084 6.21484L8.78418 11.1758L7.54102 9.93555C7.33294 9.72747 7.07408 9.59939 6.78223 9.58008L6.65625 9.57812C6.3399 9.59078 6.06201 9.70953 5.83105 9.91602L5.82031 9.92578L5.81055 9.93555C5.57586 10.1702 5.46484 10.4692 5.46484 10.793C5.46484 11.0755 5.55123 11.3366 5.72559 11.5547L5.80566 11.6455L8.13184 13.9717L8.1543 13.9893L8.26758 14.0791L8.28223 14.0908L8.29785 14.1016C8.45167 14.2056 8.62132 14.2767 8.7998 14.3057L8.98047 14.3203H8.98828C9.40594 14.314 9.76245 14.1259 9.98926 13.7568L9.99023 13.7578L14.1191 7.57422L14.124 7.56738C14.3023 7.29004 14.3533 6.98003 14.2969 6.67188L13.8047 6.76172L14.2969 6.6709L14.2949 6.66211L14.2656 6.54688C14.1872 6.28518 14.0265 6.05551 13.7734 5.89648L13.7744 5.89551C13.5373 5.7431 13.2763 5.68054 13.0117 5.69629Z" fill="#3897F0" stroke="black"/>
</svg>
